<svg width="12" height="15" viewBox="0 0 12 15" fill="none" xmlns="http://www.w3.org/2000/svg">
<path fill-rule="evenodd" clip-rule="evenodd" d="M0.826172 6.42744C0.835777 3.60038 3.13535 1.31638 5.9624 1.32596C8.78946 1.33559 11.0735 3.63516 11.0639 6.46222V6.52019C11.0291 8.35787 10.003 10.0564 8.74501 11.384C8.02558 12.131 7.22218 12.7924 6.35081 13.355C6.11781 13.5565 5.77221 13.5565 5.53922 13.355C4.24022 12.5095 3.10013 11.442 2.1711 10.2014C1.34307 9.11949 0.872949 7.80639 0.826172 6.44483V6.42744Z" stroke="white" stroke-width="1.5" stroke-linecap="round" stroke-linejoin="round"/>
<path d="M5.94487 8.16659C6.85098 8.16659 7.58553 7.43203 7.58553 6.52592C7.58553 5.6198 6.85098 4.88525 5.94487 4.88525C5.03875 4.88525 4.3042 5.6198 4.3042 6.52592C4.3042 7.43203 5.03875 8.16659 5.94487 8.16659Z" stroke="white" stroke-width="1.5" stroke-linecap="round" stroke-linejoin="round"/>
</svg>
